<?xml version="1.0" encoding="UTF-8" standalone="no"?><svg class="icon" style="width: 1em;height: 1em;vertical-align: middle;fill: currentColor;overflow: hidden;" viewBox="0 0 1024 1024" version="1.1" xmlns="http://www.w3.org/2000/svg" p-id="6490"><path d="M426.666667 85.333333a341.333333 341.333333 0 1 0 0 682.666667 341.333333 341.333333 0 0 0 0-682.666667z m0 85.333334a256 256 0 1 1 0 512 256 256 0 0 1 0-512z" fill="#049DEE" p-id="6491"></path><path d="M609.834667 609.834667a42.666667 42.666667 0 0 1 56.32-3.541334l4.010666 3.541334 213.333334 213.333333a42.666667 42.666667 0 0 1-56.32 63.872l-4.010667-3.541333-213.333333-213.333334a42.666667 42.666667 0 0 1 0-60.330666z" fill="#049DEE" p-id="6492"></path><path d="M695.168 695.168a42.666667 42.666667 0 0 1 56.32-3.541333l4.010667 3.541333 149.333333 149.333333a42.666667 42.666667 0 0 1-56.32 63.872l-4.010667-3.541333-149.333333-149.333333a42.666667 42.666667 0 0 1 0-60.330667z" fill="#03CD8E" p-id="6493"></path></svg>